# Blender v2.72 (sub 0) OBJ File: ''
# www.blender.org
mtllib floating-pillar.mtl
o Cube.001_Cube.005
v -1.005477 1.058518 -0.027417
v -1.005477 1.058518 -0.827417
v -0.205477 1.058518 -0.827417
v -0.205477 1.058518 -0.027417
v -1.005477 1.858518 -0.027417
v -1.005477 1.858518 -0.827417
v -0.205477 1.858518 -0.827417
v -0.205477 1.858518 -0.027417
vt 1.000000 0.000000
vt 1.000000 1.000000
vt 0.000000 1.000000
vt 0.000000 0.000000
vn -1.000000 0.000000 0.000000
vn 0.000000 0.000000 -1.000000
vn 1.000000 0.000000 0.000000
vn 0.000000 0.000000 1.000000
vn 0.000000 -1.000000 0.000000
vn 0.000000 1.000000 0.000000
usemtl None
s off
f 6/1/1 2/2/1 1/3/1
f 7/1/2 3/2/2 2/3/2
f 8/1/3 4/2/3 3/3/3
f 5/1/4 1/2/4 4/3/4
f 2/1/5 3/2/5 4/3/5
f 7/1/6 6/2/6 5/3/6
f 5/4/1 6/1/1 1/3/1
f 6/4/2 7/1/2 2/3/2
f 7/4/3 8/1/3 3/3/3
f 8/4/4 5/1/4 4/3/4
f 1/4/5 2/1/5 4/3/5
f 8/4/6 7/1/6 5/3/6
o Cube.004
v -0.005477 1.058518 -0.027417
v -0.005477 1.058518 -0.827417
v 0.794523 1.058518 -0.827417
v 0.794523 1.058518 -0.027417
v -0.005477 1.858518 -0.027417
v -0.005477 1.858518 -0.827417
v 0.794523 1.858518 -0.827417
v 0.794523 1.858518 -0.027417
vt 1.000000 0.000000
vt 1.000000 1.000000
vt 0.000000 1.000000
vt 0.000000 0.000000
vn -1.000000 0.000000 0.000000
vn 0.000000 0.000000 -1.000000
vn 1.000000 0.000000 0.000000
vn 0.000000 0.000000 1.000000
vn 0.000000 -1.000000 0.000000
vn 0.000000 1.000000 0.000000
usemtl None
s off
f 14/5/7 10/6/7 9/7/7
f 15/5/8 11/6/8 10/7/8
f 16/5/9 12/6/9 11/7/9
f 13/5/10 9/6/10 12/7/10
f 10/5/11 11/6/11 12/7/11
f 15/5/12 14/6/12 13/7/12
f 13/8/7 14/5/7 9/7/7
f 14/8/8 15/5/8 10/7/8
f 15/8/9 16/5/9 11/7/9
f 16/8/10 13/5/10 12/7/10
f 9/8/11 10/5/11 12/7/11
f 16/8/12 15/5/12 13/7/12
o Cube.003
v -0.005477 1.058518 0.972583
v -0.005477 1.058518 0.172583
v 0.794523 1.058518 0.172583
v 0.794523 1.058518 0.972583
v -0.005477 1.858518 0.972583
v -0.005477 1.858518 0.172583
v 0.794523 1.858518 0.172583
v 0.794523 1.858518 0.972583
vt 1.000000 0.000000
vt 1.000000 1.000000
vt 0.000000 1.000000
vt 0.000000 0.000000
vn -1.000000 0.000000 0.000000
vn 0.000000 0.000000 -1.000000
vn 1.000000 0.000000 0.000000
vn 0.000000 0.000000 1.000000
vn 0.000000 -1.000000 0.000000
vn 0.000000 1.000000 0.000000
usemtl None
s off
f 22/9/13 18/10/13 17/11/13
f 23/9/14 19/10/14 18/11/14
f 24/9/15 20/10/15 19/11/15
f 21/9/16 17/10/16 20/11/16
f 18/9/17 19/10/17 20/11/17
f 23/9/18 22/10/18 21/11/18
f 21/12/13 22/9/13 17/11/13
f 22/12/14 23/9/14 18/11/14
f 23/12/15 24/9/15 19/11/15
f 24/12/16 21/9/16 20/11/16
f 17/12/17 18/9/17 20/11/17
f 24/12/18 23/9/18 21/11/18
o Cube.002
v -1.005477 1.058518 0.972583
v -1.005477 1.058518 0.172583
v -0.205477 1.058518 0.172583
v -0.205477 1.058518 0.972583
v -1.005477 1.858518 0.972583
v -1.005477 1.858518 0.172583
v -0.205477 1.858518 0.172583
v -0.205477 1.858518 0.972583
vt 1.000000 0.000000
vt 1.000000 1.000000
vt 0.000000 1.000000
vt 0.000000 0.000000
vn -1.000000 0.000000 0.000000
vn 0.000000 0.000000 -1.000000
vn 1.000000 0.000000 0.000000
vn 0.000000 0.000000 1.000000
vn 0.000000 -1.000000 0.000000
vn 0.000000 1.000000 0.000000
usemtl None
s off
f 30/13/19 26/14/19 25/15/19
f 31/13/20 27/14/20 26/15/20
f 32/13/21 28/14/21 27/15/21
f 29/13/22 25/14/22 28/15/22
f 26/13/23 27/14/23 28/15/23
f 31/13/24 30/14/24 29/15/24
f 29/16/19 30/13/19 25/15/19
f 30/16/20 31/13/20 26/15/20
f 31/16/21 32/13/21 27/15/21
f 32/16/22 29/13/22 28/15/22
f 25/16/23 26/13/23 28/15/23
f 32/16/24 31/13/24 29/15/24
o Cube
v 1.000000 -1.000000 -1.000000
v 1.000000 -1.000000 1.000000
v -1.000000 -1.000000 1.000000
v -1.000000 -1.000000 -1.000000
v 1.000000 1.000000 -0.999999
v 0.999999 1.000000 1.000001
v -1.000000 1.000000 1.000000
v -1.000000 1.000000 -1.000000
vt 1.000000 0.000000
vt 1.000000 1.000000
vt 0.000000 1.000000
vt 0.000000 0.000000
vn 0.000000 -1.000000 0.000000
vn 0.000000 1.000000 0.000000
vn 1.000000 -0.000000 0.000000
vn -0.000000 -0.000000 1.000000
vn -1.000000 -0.000000 -0.000000
vn 0.000000 0.000000 -1.000000
usemtl Material
s off
f 34/17/25 35/18/25 36/19/25
f 40/17/26 39/18/26 38/19/26
f 33/20/27 37/17/27 38/18/27
f 34/20/28 38/17/28 39/18/28
f 39/17/29 40/18/29 36/19/29
f 33/17/30 36/18/30 40/19/30
f 33/20/25 34/17/25 36/19/25
f 37/20/26 40/17/26 38/19/26
f 34/19/27 33/20/27 38/18/27
f 35/19/28 34/20/28 39/18/28
f 35/20/29 39/17/29 36/19/29
f 37/20/30 33/17/30 40/19/30
